# xmcd
#
# Track frame offsets: 
#        150
#        33172
#        56277
#        73477
#        89970
#        116290
#        141402
#        161900
#        186417
#
# Disc length: 2748 seconds
#
# Revision: 3
# Processed by: cddbd v1.5.2PL0 Copyright (c) Steve Scherf et al.
# Submitted via: ExactAudioCopy v0.99pb5
#
DISCID=890aba09
DTITLE=Sade - Love Deluxe
DYEAR=1992
DGENRE=Pop
TTITLE0=No Ordinary Love
TTITLE1=Feel No Pain
TTITLE2=I Couldn't Love You More
TTITLE3=Like A Tattoo
TTITLE4=Kiss Of Life
TTITLE5=Cherish The Day
TTITLE6=Pearls
TTITLE7=Bullet Proof Soul
TTITLE8=Mermaid
EXTD=
EXTT0=
EXTT1=
EXTT2=
EXTT3=
EXTT4=
EXTT5=
EXTT6=
EXTT7=
EXTT8=
PLAYORDER=
